<svg width="80" height="80" viewBox="0 0 80 80" fill="none" xmlns="http://www.w3.org/2000/svg">
<path d="M41.5003 0.0317074C19.4753 -0.838449 0.909508 16.3079 0.0322183 38.333C-0.845075 60.358 16.3014 78.9239 38.3264 79.7943C60.3514 80.671 78.9103 63.5248 79.7878 41.4998C80.6645 19.4747 63.5182 0.909 41.5003 0.0317074ZM58.3472 58.5036C57.848 59.3809 56.8851 59.8159 55.9436 59.6876C55.6512 59.6448 55.3658 59.5521 55.0948 59.3951C49.8168 56.3924 44.068 54.4381 38.0055 53.5822C31.9429 52.7334 25.8803 53.0259 19.9817 54.4594C18.705 54.7733 17.414 53.9816 17.1003 52.7049C16.7864 51.4282 17.5781 50.1372 18.8548 49.8233C25.3382 48.2471 32.0071 47.9261 38.6688 48.8605C45.3305 49.7948 51.6498 51.9489 57.4486 55.2441C58.5898 55.8931 58.9892 57.3481 58.3401 58.4964L58.3472 58.5036ZM63.5896 48.026C62.7765 49.531 60.8935 50.0944 59.3886 49.2741C53.2119 45.9362 46.5359 43.7394 39.5247 42.7551C32.5206 41.7708 25.488 42.0347 18.6337 43.5469C18.2628 43.6253 17.8919 43.6395 17.5353 43.5896C16.2871 43.4113 15.2244 42.4841 14.9391 41.186C14.5682 39.517 15.631 37.8623 17.3 37.4985C24.8746 35.8295 32.6419 35.537 40.3805 36.6212C48.1193 37.7053 55.5014 40.1304 62.3272 43.825C63.8321 44.6381 64.3956 46.5211 63.5754 48.026H63.5896ZM69.4025 36.2147C68.6394 37.6839 67.0417 38.4542 65.4868 38.2331C65.066 38.176 64.6524 38.0477 64.26 37.8409C57.0706 34.1034 49.3318 31.6356 41.2507 30.4944C33.1696 29.3604 25.0457 29.6028 17.1074 31.2148C15.046 31.6356 13.0348 30.3018 12.6139 28.2334C12.1931 26.1722 13.5268 24.1608 15.5952 23.7399C24.3825 21.9569 33.3765 21.6858 42.3135 22.9411C51.2504 24.1965 59.8236 26.9353 67.7763 31.0721C69.645 32.0421 70.3725 34.346 69.4025 36.2147Z" fill="#CFF56A"/>
</svg>
